<svg xmlns="http://www.w3.org/2000/svg" width="793" height="205" viewBox="0 0 793 205">
  <defs>
    <style>
      .cls-1 {
        fill: #fff;
        fill-rule: evenodd;
      }
    </style>
  </defs>
  <path id="VIBE_" data-name="VIBE " class="cls-1" d="M29.673,25.155h24.4L88.6,144.911h0.418L123.644,25.155h24.405L97.778,182.369H79.84Zm129.834,0h23.055V182.369H159.507V25.155Zm48.1,0h59.017q22.458,0.217,33.739,11.646Q311.749,48.34,311.75,67.316a37.142,37.142,0,0,1-4.49,18.547,30.017,30.017,0,0,1-6.891,7.979,49.37,49.37,0,0,1-11.068,7.224V101.5q12.462,3.343,18.852,13.478a45.127,45.127,0,0,1,5.969,22.752q-0.21,20.38-12.335,32.241-12.021,12.4-30,12.4H207.608V25.155Zm23.055,87.439v47.357h35.593q12.876-.215,18.843-7.245a24.342,24.342,0,0,0,5.968-16.434,24.642,24.642,0,0,0-5.968-16.651q-5.967-6.81-18.843-7.027H230.663Zm0-66.315v45.2h33.344q12.647,0,18.606-6.829a21.891,21.891,0,0,0,6.062-15.826,23.033,23.033,0,0,0-6.062-16.151q-5.959-6.177-18.606-6.4H230.663ZM333.452,25.155h97.28V47.573H356.507V92.558h63.36v21.114h-63.36v46.279h74.225v22.418h-97.28V25.155Z"/>
  <path id="SOCIAL_CLUB" data-name="SOCIAL CLUB" class="cls-1" d="M490.026,71.4a17.952,17.952,0,0,0-6.128-6.152,60.6,60.6,0,0,0-12.549-5.591A64.456,64.456,0,0,1,460.118,54.8a13.222,13.222,0,0,1-4.711-4.565,13.041,13.041,0,0,1-1.441-6.494,11.965,11.965,0,0,1,4.688-9.961q4.688-3.662,12.6-3.662a44.086,44.086,0,0,1,16.992,3.711l1.807-4.3a47.234,47.234,0,0,0-18.9-3.809q-9.864,0-16.138,5.054a16.005,16.005,0,0,0-6.274,13.062q0,7.276,4.174,11.645t15.113,8.13a68.695,68.695,0,0,1,11.328,4.736,15.6,15.6,0,0,1,5.566,4.858,12.205,12.205,0,0,1,1.709,6.714A12.778,12.778,0,0,1,481.481,90.5q-5.153,4.028-13.941,4.028-11.963,0-19.677-3.271v4.98q6.981,2.88,20.068,2.881,10.889,0,17.456-5.225t6.567-14.16A16.8,16.8,0,0,0,490.026,71.4Zm66.579-35.937q-8.448-9.839-23.389-9.839-14.844,0-23.413,9.79t-8.569,26.831q0,17.091,8.5,26.977t23.388,9.888q14.941,0,23.438-9.888t8.5-26.88Q565.052,45.306,556.605,35.467Zm-43.042,3.3q6.909-8.3,19.653-8.3,12.792,0,19.605,8.228t6.811,23.657q0,15.479-6.811,23.779t-19.7,8.3q-12.792,0-19.628-8.374t-6.836-23.706Q506.654,47.064,513.563,38.763Zm112.77-4.639,2-4.492a43.194,43.194,0,0,0-18.7-3.906,35.047,35.047,0,0,0-17.993,4.517,29.854,29.854,0,0,0-11.865,12.817,42.577,42.577,0,0,0-4.126,19.19q0,17.432,8.642,27.148t23.682,9.717q10.595,0,17.676-2.49V92.229a56.333,56.333,0,0,1-16.5,2.295q-13.525,0-20.8-8.447t-7.275-23.73q0-14.941,7.715-23.535t21.142-8.594a36.222,36.222,0,0,1,16.406,3.906h0Zm18.215,64.014V26.751h-4.98V98.138h4.98Zm62.5,0h5.615L684.54,26.458h-3.173l-28.711,71.68h5.517l9.961-25.2h29Zm-27.1-55.322a78.474,78.474,0,0,0,2.88-8.5q1.709,5.372,2.93,8.4l9.717,25.733H669.941Zm79.835,55.322V93.45H725.753v-66.7h-4.98V98.138h39.013ZM499.425,117.457l2-4.492a43.192,43.192,0,0,0-18.7-3.906,35.053,35.053,0,0,0-17.993,4.516,29.858,29.858,0,0,0-11.865,12.818,42.562,42.562,0,0,0-4.126,19.189q0,17.432,8.642,27.149t23.682,9.716q10.595,0,17.676-2.49v-4.394a56.346,56.346,0,0,1-16.5,2.3q-13.527,0-20.8-8.448t-7.276-23.73q0-14.942,7.715-23.535t21.143-8.594a36.22,36.22,0,0,1,16.406,3.906h0Zm52.248,64.014v-4.688H517.64v-66.7h-4.98v71.387h39.013Zm57.815-71.387v46.68q0,10.01-5.616,15.649t-15.82,5.64q-10.449,0-16.162-5.737t-5.713-16.04V110.084h-5.029v46q0,12.451,6.958,19.409t19.36,6.958q12.744,0,19.873-6.933t7.129-19.238V110.084h-4.98ZM631.9,181.471h21.875q12.012,0,18.554-5.322t6.543-15.186q0-7.372-4.028-11.5t-12.573-5.4v-0.292q7.275-1.173,11.059-5.3a14.7,14.7,0,0,0,3.785-10.327q0-9.083-6.2-13.575t-19.433-4.492H631.9v71.387Zm4.98-66.992h14.4q10.206,0,15.357,3.222t5.151,10.352q0,7.13-4.565,10.473t-14.624,3.345H636.882V114.479Zm15.723,31.787q20.9,0,20.9,14.7,0,16.113-19.824,16.113h-16.8v-30.81h15.723Z"/>
</svg>
